<svg xmlns="http://www.w3.org/2000/svg" width="16px" height="16px" viewBox="0 0 16 16" version="1.1" fill="#ffffff">
    <path d="M 13 10 L 12 10 L 12 12 L 10 12 L 10 13 L 12 13 L 12 15 L 13 15 L 13 13 L 15 13 L 15 12 L 13 12 Z M 13 10 "/>
    <path d="M 14 4 L 8 4 L 6.300781 2.300781 C 6.101562 2.101562 5.851562 2 5.601562 2 L 2 2 C 1.449219 2 1 2.449219 1 3 L 1 13 C 1 13.550781 1.449219 14 2 14 L 9 14 L 9 13 L 2 13 L 2 3 L 5.601562 3 L 7.601562 5 L 14 5 L 14 9 L 15 9 L 15 5 C 15 4.449219 14.550781 4 14 4 Z M 14 4 "/>
</svg>
