<svg xmlns="http://www.w3.org/2000/svg" width="16px" height="16px" viewBox="0 0 16 16" version="1.1" fill="#ffffff">
    <path d="M 15 14.296875 L 11.226562 10.5 C 13.101562 8.238281 12.867188 4.902344 10.695312 2.925781 C 8.523438 0.945312 5.179688 1.023438 3.101562 3.101562 C 1.023438 5.179688 0.945312 8.523438 2.925781 10.695312 C 4.902344 12.867188 8.238281 13.101562 10.5 11.226562 L 14.296875 15 Z M 2.5 7 C 2.5 4.515625 4.515625 2.5 7 2.5 C 9.484375 2.5 11.5 4.515625 11.5 7 C 11.5 9.484375 9.484375 11.5 7 11.5 C 4.515625 11.5 2.5 9.484375 2.5 7 Z M 2.5 7 "/>
</svg>
