<svg xmlns="http://www.w3.org/2000/svg" width="16px" height="16px" viewBox="0 0 16 16" version="1.1" fill="#ffffff">
    <path d="M 8 1 C 4.132812 1 1 4.132812 1 8 C 1 11.867188 4.132812 15 8 15 C 11.867188 15 15 11.867188 15 8 C 15 4.132812 11.867188 1 8 1 Z M 8 14 C 4.6875 14 2 11.3125 2 8 C 2 4.6875 4.6875 2 8 2 C 11.3125 2 14 4.6875 14 8 C 14 11.3125 11.3125 14 8 14 Z M 8 14 "/>
    <path d="M 8.75 11.75 C 8.75 12.164062 8.414062 12.5 8 12.5 C 7.585938 12.5 7.25 12.164062 7.25 11.75 C 7.25 11.335938 7.585938 11 8 11 C 8.414062 11 8.75 11.335938 8.75 11.75 Z M 8.75 11.75 "/>
    <path d="M 8.5 4 L 7.75 4 C 7.152344 4 6.578125 4.234375 6.15625 4.65625 C 5.734375 5.078125 5.5 5.652344 5.5 6.25 L 5.5 6.5 L 6.5 6.5 L 6.5 6.25 C 6.5 5.558594 7.058594 5 7.75 5 L 8.5 5 C 9.191406 5 9.75 5.558594 9.75 6.25 C 9.75 6.941406 9.191406 7.5 8.5 7.5 L 7.5 7.5 L 7.5 9.75 L 8.5 9.75 L 8.5 8.5 C 9.742188 8.5 10.75 7.492188 10.75 6.25 C 10.75 5.007812 9.742188 4 8.5 4 Z M 8.5 4 "/>
</svg>
