<svg xmlns="http://www.w3.org/2000/svg" width="16px" height="16px" viewBox="0 0 16 16" version="1.1" fill="#ffffff">
    <path d="M 13 4.75 C 13 5.164062 12.664062 5.5 12.25 5.5 C 11.835938 5.5 11.5 5.164062 11.5 4.75 C 11.5 4.335938 11.835938 4 12.25 4 C 12.664062 4 13 4.335938 13 4.75 Z M 13 4.75 "/>
    <path d="M 8.707031 11 L 6 11 L 6 8.292969 L 9.015625 5.277344 C 9.003906 5.1875 9 5.09375 9 5 C 9 3.34375 10.34375 2 12 2 C 13.65625 2 15 3.34375 15 5 C 15 6.65625 13.65625 8 12 8 C 11.90625 8 11.8125 7.996094 11.722656 7.984375 Z M 7 10 L 8.292969 10 L 11.378906 6.914062 L 11.636719 6.960938 C 11.757812 6.984375 11.878906 7 12 7 C 12.855469 7.011719 13.628906 6.480469 13.925781 5.675781 C 14.222656 4.871094 13.980469 3.96875 13.324219 3.417969 C 12.664062 2.871094 11.730469 2.796875 10.992188 3.230469 C 10.257812 3.667969 9.871094 4.523438 10.039062 5.363281 L 10.085938 5.621094 L 7 8.707031 Z M 7 10 "/>
    <path d="M 14 9 L 14 13 L 5 13 L 5 3 L 7 3 L 7 2 L 2 2 C 1.449219 2 1 2.449219 1 3 L 1 13 C 1 13.550781 1.449219 14 2 14 L 14 14 C 14.550781 14 15 13.550781 15 13 L 15 9 Z M 2 3 L 4 3 L 4 13 L 2 13 Z M 2 3 "/>
</svg>
