<svg xmlns="http://www.w3.org/2000/svg" width="16px" height="16px" viewBox="0 0 16 16" version="1.1" fill="#ffffff">
    <path d="M 6 5 L 3.390625 5 C 4.71875 2.957031 7.230469 2.035156 9.566406 2.726562 C 11.898438 3.417969 13.5 5.566406 13.5 8 L 14.5 8 C 14.503906 5.261719 12.789062 2.8125 10.210938 1.882812 C 7.632812 0.949219 4.75 1.734375 3 3.839844 L 3 2 L 2 2 L 2 6 L 6 6 Z M 6 5 "/>
    <path d="M 10 11 L 12.609375 11 C 11.28125 13.042969 8.769531 13.964844 6.433594 13.273438 C 4.101562 12.582031 2.5 10.433594 2.5 8 L 1.5 8 C 1.496094 10.738281 3.210938 13.1875 5.789062 14.117188 C 8.367188 15.050781 11.25 14.265625 13 12.160156 L 13 14 L 14 14 L 14 10 L 10 10 Z M 10 11 "/>
</svg>
