<svg xmlns="http://www.w3.org/2000/svg" width="16px" height="16px" viewBox="0 0 16 16" version="1.1" fill="#ffffff">
    <path d="M 13.855469 4.644531 L 11.355469 2.144531 C 11.261719 2.050781 11.132812 2 11 2 L 3 2 C 2.449219 2 2 2.449219 2 3 L 2 13 C 2 13.550781 2.449219 14 3 14 L 13 14 C 13.550781 14 14 13.550781 14 13 L 14 5 C 14 4.867188 13.949219 4.738281 13.855469 4.644531 Z M 6 3 L 10 3 L 10 5 L 6 5 Z M 10 13 L 6 13 L 6 9 L 10 9 Z M 11 13 L 11 9 C 11 8.449219 10.550781 8 10 8 L 6 8 C 5.449219 8 5 8.449219 5 9 L 5 13 L 3 13 L 3 3 L 5 3 L 5 5 C 5 5.550781 5.449219 6 6 6 L 10 6 C 10.550781 6 11 5.550781 11 5 L 11 3.203125 L 13 5.203125 L 13 13 Z M 11 13 "/>
</svg>
