<svg xmlns="http://www.w3.org/2000/svg" width="16px" height="16px" viewBox="0 0 16 16" version="1.1" fill="#ffffff">
    <path d="M 8 2 C 9.378906 2 10.5 3.121094 10.5 4.5 C 10.5 5.878906 9.378906 7 8 7 C 6.621094 7 5.5 5.878906 5.5 4.5 C 5.5 3.121094 6.621094 2 8 2 M 8 1 C 6.066406 1 4.5 2.566406 4.5 4.5 C 4.5 6.433594 6.066406 8 8 8 C 9.933594 8 11.5 6.433594 11.5 4.5 C 11.5 2.566406 9.933594 1 8 1 Z M 8 1 "/>
    <path d="M 13 15 L 12 15 L 12 12.5 C 12 11.121094 10.878906 10 9.5 10 L 6.5 10 C 5.121094 10 4 11.121094 4 12.5 L 4 15 L 3 15 L 3 12.5 C 3 10.566406 4.566406 9 6.5 9 L 9.5 9 C 11.433594 9 13 10.566406 13 12.5 Z M 13 15 "/>
</svg>
