<svg xmlns="http://www.w3.org/2000/svg" fill="none" viewBox="0 0 170 47">
  <defs/>
  <path fill="url(#paint0_linear)" d="M140.87 9.39l9.57 28.2V47h19.18v-9.42l-9.58-28.2V0h-19.17v9.39z"/>
  <path fill="url(#paint1_linear)" d="M121.89 9.39l9.57 28.2V47h19.17v-9.42l-9.57-28.2V0H121.9v9.39z"/>
  <path fill="#2F3FC5" d="M0 47h131.73v-9.4l-9.69-28.2V0H0v47z"/>
  <path fill="#fff" d="M36.16 22.16c0-1.93-1.2-3.24-3.07-3.24h-4.83v10.17h2.23v-3.73h1.58l1.78 3.73h2.47l-2-3.99c1.23-.47 1.84-1.56 1.84-2.94zm-2.28.32c0 .66-.41 1-1.07 1h-2.32v-2.65h2.33c.66 0 1.07.35 1.07 1v.65h-.01zM69.28 25.76h-.04l-.98-2.03-2.78-4.81h-2.42v10.16h2.1v-6.84h.04l.96 2.04 2.78 4.8h2.42V18.92h-2.08v6.84zM51.72 18.92h-2.2v1.76l2.1 6.97v1.43h2.2v-1.76l-2.1-6.97v-1.43zM58.01 18.92h-2.2v1.76l2.09 6.97v1.43h2.2v-1.76l-2.09-6.97v-1.43zM45.02 18.92h-3.7l-.42 1.43-2.1 6.97v1.76H41v-1.43l2.03-6.73h.28l2.03 6.73v1.43h2.2v-1.76l-2.1-6.97-.42-1.43zM81.22 23.95a4.24 4.24 0 00-2.32-.98l-1.02-.17a2.03 2.03 0 01-.91-.3c-.18-.13-.27-.36-.27-.69 0-.61.49-.93 1.45-.93h3.12v-1.96h-3.12c-1.14.02-2.04.3-2.69.85a2.73 2.73 0 00-.98 2.18c0 .86.26 1.54.76 2.02.5.47 1.29.78 2.34.9l1 .13c.44.06.75.19.91.38.18.18.27.42.27.72 0 .38-.13.68-.4.9-.28.22-.68.33-1.2.33-1 0-1.85-.4-2.56-1.17l-1.44 1.47A4.88 4.88 0 0078 29.28c.82 0 1.54-.14 2.13-.42.6-.27 1.06-.66 1.36-1.15.31-.5.46-1.07.46-1.72.04-.89-.22-1.56-.72-2.04zM15.99 18.92v1.76h1.3v8.41h5.39c.37 0 .72-.07 1.04-.23a2.7 2.7 0 001.39-1.54c.13-.35.2-.72.2-1.13 0-1.34-.8-2.12-1.63-2.41v-.09c.69-.25 1.23-.97 1.23-2.16 0-.8-.23-1.42-.7-1.9a2.67 2.67 0 00-1.97-.71h-6.25zm3.52 1.86h2.2c.3 0 .52.09.68.25.17.17.26.4.26.68v.44c0 .29-.1.52-.26.68a.93.93 0 01-.68.26h-2.2v-2.31zm3.5 5.52c0 .3-.09.52-.26.68-.16.17-.4.24-.69.24h-2.55V24.9h2.55c.29 0 .52.08.7.24.16.17.25.39.25.69v.48zM108.54 17.4V13H86.56v4.4l1 3a5.26 5.26 0 112.92 8.78l.48 1.42V35h21.98v-4.4l-4.4-13.2zm-2.97 10.29c-.3.49-.77.88-1.36 1.15-.6.27-1.3.42-2.13.42a4.88 4.88 0 01-3.83-1.65l1.44-1.48c.7.8 1.55 1.18 2.55 1.18.53 0 .93-.1 1.2-.33.28-.22.4-.53.4-.9 0-.3-.08-.53-.26-.73-.17-.18-.48-.3-.9-.37l-1-.13a4.04 4.04 0 01-2.35-.9 2.64 2.64 0 01-.76-2.02c0-.9.33-1.64.98-2.19a4.23 4.23 0 012.7-.84h3.11v1.96h-3.12c-.96 0-1.45.32-1.45.94 0 .33.09.56.27.7.17.13.48.22.9.29l1.03.16c1.03.17 1.81.5 2.32.98.5.49.76 1.17.76 2.03a3.32 3.32 0 01-.5 1.72z"/>
  <path fill="#fff" d="M94.48 24.01a3.1 3.1 0 00-6.03-.93l1.14 3.44a3.1 3.1 0 004.89-2.5z"/>
  <defs>
    <linearGradient id="paint0_linear" x1="143.44" x2="167.98" y1="28.51" y2="22.41" gradientUnits="userSpaceOnUse">
      <stop stop-color="#0F1331"/>
      <stop offset="1" stop-color="#161D5E"/>
    </linearGradient>
    <linearGradient id="paint1_linear" x1="124.48" x2="149.01" y1="28.51" y2="22.41" gradientUnits="userSpaceOnUse">
      <stop stop-color="#0F1331"/>
      <stop offset="1" stop-color="#1F2C90"/>
    </linearGradient>
  </defs>
</svg>
