<svg xmlns="http://www.w3.org/2000/svg" fill="none" viewBox="0 0 191 47">
  <defs/>
  <path fill="url(#paint0_linear)" d="M161.85 9.39l9.57 28.2V47h19.18v-9.42l-9.58-28.2V0h-19.17v9.39z"/>
  <path fill="url(#paint1_linear)" d="M142.87 9.39l9.57 28.2V47h19.17v-9.42l-9.57-28.2V0h-19.17v9.39z"/>
  <path fill="url(#paint2_linear)" d="M0 47h152.71v-9.4l-9.69-28.2V0H0v47z"/>
  <path fill="#fff" d="M36.13 22.17c0-1.96-1.22-3.24-3.05-3.24h-4.82v10.14h2.2v-3.73h1.58l1.77 3.73h2.45l-2.02-3.97c1.28-.49 1.9-1.59 1.9-2.93zm-2.26.3c0 .67-.42.98-1.03.98h-2.32v-2.63h2.32c.67 0 1.03.37 1.03.98v.67zM69.29 25.77h-.07l-.97-2.08-2.75-4.76h-2.44v10.14h2.07v-6.84h.06l.98 2.01 2.75 4.83h2.44V18.93H69.3v6.84zM51.7 18.93h-2.2v1.77l2.08 6.97v1.4h2.26V27.3l-2.14-6.97v-1.4zM58 18.93h-2.2v1.77l2.07 6.97v1.4h2.2V27.3l-2.08-6.97v-1.4zM44.99 18.93h-3.67l-.42 1.4-2.14 6.97v1.77h2.26v-1.4l2.01-6.73h.25l2.01 6.73v1.4h2.26V27.3l-2.14-6.97-.42-1.4zM78.87 22.96l-1.04-.18a2.26 2.26 0 01-.91-.3c-.19-.13-.25-.37-.25-.68 0-.61.5-.92 1.47-.92h3.11v-1.95h-3.11c-1.16 0-2.02.3-2.69.85a2.67 2.67 0 00-.98 2.2c0 .86.25 1.53.74 2.02s1.28.8 2.32.92l.97.12c.43.06.74.18.92.37.18.18.24.42.24.73 0 .37-.12.67-.42.92-.25.24-.67.3-1.22.3-.98 0-1.84-.37-2.57-1.16L74 27.67a4.9 4.9 0 003.84 1.65 4.6 4.6 0 002.14-.43 3.13 3.13 0 001.83-2.87c0-.86-.24-1.53-.73-2.02-.37-.55-1.16-.86-2.2-1.04zM23.68 23.76v-.07c.67-.24 1.22-.97 1.22-2.13 0-.8-.25-1.41-.73-1.9a2.58 2.58 0 00-1.96-.73H16v1.77h1.34v8.43h5.37a2 2 0 001.04-.24c.3-.12.61-.37.85-.61.25-.25.43-.55.55-.92.13-.37.19-.73.19-1.1-.06-1.4-.86-2.2-1.65-2.5zm-4.15-3h2.2c.3 0 .54.06.67.25.18.18.24.36.24.67v.49c0 .3-.06.55-.24.67-.19.18-.37.24-.68.24h-2.2v-2.32zM23 26.32c0 .3-.06.5-.25.67a.92.92 0 01-.67.25h-2.56v-2.32h2.5c.3 0 .55.06.67.24.18.18.25.37.25.67v.5H23zM97.19 20.88A3.13 3.13 0 0094.07 24c0 1.71 1.4 3.12 3.12 3.12 1.7 0 3.11-1.4 3.11-3.12 0-1.71-1.4-3.12-3.11-3.12z"/>
  <path fill="#fff" d="M129.73 17.4V13H85.77v4.4l4.4 13.2V35h43.95v-4.4l-4.4-13.2zM97.19 29.26a5.25 5.25 0 110-10.51 5.25 5.25 0 010 10.5zm14.16-1.6c-.3.5-.8.86-1.34 1.17a4.6 4.6 0 01-2.14.43 4.9 4.9 0 01-3.84-1.65l1.46-1.47c.67.8 1.53 1.16 2.56 1.16.55 0 .92-.12 1.23-.3.24-.25.42-.56.42-.92 0-.3-.06-.55-.24-.74-.18-.18-.49-.3-.92-.36l-.97-.12a3.87 3.87 0 01-2.32-.92 2.72 2.72 0 01-.74-2.02c0-.91.3-1.65.98-2.2a4.04 4.04 0 012.69-.85h3.11v1.95h-3.11c-.98 0-1.47.3-1.47.92 0 .3.06.55.25.67.18.12.48.25.91.3l1.04.19a4.3 4.3 0 012.32.98c.49.49.73 1.16.73 2.01-.12.74-.3 1.29-.6 1.78zm20.58 5.14h-13.2v-2.2l-4.39-13.2v-2.2h13.19v2.2l4.4 13.2v2.2z"/>
  <path fill="#fff" d="M124.11 20.03h-1.95v3h-3v1.95h3v3h1.95v-3h3v-1.96h-3v-3z"/>
  <defs>
    <linearGradient id="paint0_linear" x1="164.42" x2="188.96" y1="28.51" y2="22.41" gradientUnits="userSpaceOnUse">
      <stop stop-color="#2B0B0B"/>
      <stop offset="1" stop-color="#4F090D"/>
    </linearGradient>
    <linearGradient id="paint1_linear" x1="145.46" x2="169.99" y1="28.51" y2="22.41" gradientUnits="userSpaceOnUse">
      <stop stop-color="#2B0B0B"/>
      <stop offset="1" stop-color="#A2171F"/>
    </linearGradient>
    <linearGradient id="paint2_linear" x1="110.63" x2="141.93" y1="31.65" y2="-.96" gradientUnits="userSpaceOnUse">
      <stop stop-color="#2F3FC5"/>
      <stop offset="1" stop-color="#F95355"/>
    </linearGradient>
  </defs>
</svg>
