<svg id="Layer_1" data-name="Layer 1" xmlns="http://www.w3.org/2000/svg" viewBox="0 0 467.84 83.61"><title>braiinsOS_logo</title><path d="M68,74.74l-5,25.71A15.37,15.37,0,0,1,68.06,98a26.25,26.25,0,0,1,7.08-.83q10.67,0,16.16,5.28t5.49,16.37a47,47,0,0,1-.28,5q-.27,2.64-.82,5.61a56,56,0,0,1-3.9,12.85,27.82,27.82,0,0,1-6.26,8.9,24,24,0,0,1-9.07,5.22,39.84,39.84,0,0,1-12.19,1.7q-12.19,0-18.63-4.89t-6.43-16.09a51.32,51.32,0,0,1,1.1-10.22L50.53,74.74ZM65.15,144.4a17,17,0,0,0,4.88-.61,7.72,7.72,0,0,0,3.52-2.19,13.12,13.12,0,0,0,2.53-4.45,60.38,60.38,0,0,0,2-7.36,47.1,47.1,0,0,0,1.43-10.22q0-5.38-2.36-7.09a11.27,11.27,0,0,0-6.65-1.7,15.42,15.42,0,0,0-4.84.66,7.64,7.64,0,0,0-3.4,2.3,14.27,14.27,0,0,0-2.47,4.56,53.07,53.07,0,0,0-1.93,7.31,54.31,54.31,0,0,0-1.31,10.22c0,3.29.69,5.55,2.08,6.76S62.21,144.4,65.15,144.4Z" transform="translate(-39.21 -74.74)" style="fill:#ffffff"/><path d="M130.85,98.58q4,0,6.43.06t5.22.27L137.11,113c-1.1-.07-2.12-.12-3.07-.16s-1.87-.06-2.75-.06a22,22,0,0,0-5.11.5,7.19,7.19,0,0,0-3.35,1.76,9.13,9.13,0,0,0-2.14,3.35,32,32,0,0,0-1.49,5.38l-6.37,32.64H95.36L102,122.64a43.78,43.78,0,0,1,3.9-12,21.55,21.55,0,0,1,6.1-7.36,21.11,21.11,0,0,1,8.3-3.68A51.3,51.3,0,0,1,130.85,98.58Z" transform="translate(-39.21 -74.74)" style="fill:#ffffff"/><path d="M155.35,157.36q-11.31,0-16.81-3.68T133.05,142c0-1,0-2.07.11-3.13a18.39,18.39,0,0,1,.55-3.35,19.9,19.9,0,0,1,7.3-11.81q5.55-4.23,16.54-4.23a41,41,0,0,1,8.57.82,12.87,12.87,0,0,1,6,2.8l.44-2.2a11.74,11.74,0,0,0,.33-2.63q0-3.52-2.53-4.78a17.28,17.28,0,0,0-7.47-1.26h-9.72q-5.22,0-11.48.21l4.94-13.51q3.18-.22,7.86-.22h10.16q12.3,0,18.29,4.23t6,13.57a29.53,29.53,0,0,1-.22,3.52c-.14,1.24-.33,2.52-.55,3.84l-4.06,21.32a23.65,23.65,0,0,1-1.65,5.27,9.48,9.48,0,0,1-2.53,3.35,10.49,10.49,0,0,1-3.68,1.93,29,29,0,0,1-5.11,1c-1.9.14-4.3.29-7.19.43S158.21,157.36,155.35,157.36Zm4.51-26.15c-3.23,0-5.63.43-7.2,1.27s-2.58,2.47-3,4.89a6.18,6.18,0,0,0-.22,1.53V140q0,3.19,2.25,4.18a19.16,19.16,0,0,0,7.2,1c1.68,0,3.31-.06,4.89-.17s3-.23,4.23-.38l1-5.17a4.18,4.18,0,0,0,.22-1.26V137c0-2.49-.87-4.08-2.59-4.78A18.17,18.17,0,0,0,159.86,131.21Z" transform="translate(-39.21 -74.74)" style="fill:#ffffff"/><path d="M199.19,98.91h17.47l-11.21,57.47H188ZM211.5,74.74A11.89,11.89,0,0,1,218,76.22c1.5,1,2.26,2.66,2.26,5,0,3.88-1,6.56-3,8s-4.76,2.2-8.35,2.2q-8.79,0-8.79-6.48A12.93,12.93,0,0,1,201,80a7.32,7.32,0,0,1,2.37-3.13,9.61,9.61,0,0,1,3.57-1.65A19.26,19.26,0,0,1,211.5,74.74Z" transform="translate(-39.21 -74.74)" style="fill:#ffffff"/><path d="M222.81,98.91h17.47l-11.2,57.47H211.6Zm12.31-24.17a12,12,0,0,1,6.54,1.48q2.25,1.48,2.25,5c0,3.88-1,6.56-3,8s-4.76,2.2-8.35,2.2q-8.79,0-8.79-6.48a13.13,13.13,0,0,1,.82-4.95A7.32,7.32,0,0,1,227,76.88a9.61,9.61,0,0,1,3.57-1.65A19.26,19.26,0,0,1,235.12,74.74Z" transform="translate(-39.21 -74.74)" style="fill:#ffffff"/><path d="M252.7,156.38H235.23l7-35.82a40.73,40.73,0,0,1,3.46-10.94,21.3,21.3,0,0,1,5.82-7.25,22.13,22.13,0,0,1,8.63-4A51.76,51.76,0,0,1,272,97.15q11.74,0,17.85,4.51T296,115.5a25.29,25.29,0,0,1-.22,3.19c-.15,1.1-.33,2.27-.55,3.51l-6.59,34.18H271.16L278,121.43c.14-.73.25-1.4.33-2a15.39,15.39,0,0,0,.11-1.7q0-3.4-1.92-4.89a9.16,9.16,0,0,0-5.66-1.48,18.91,18.91,0,0,0-4.73.49,7.35,7.35,0,0,0-3.13,1.65,8.8,8.8,0,0,0-2.09,3.07,23.34,23.34,0,0,0-1.37,4.89Z" transform="translate(-39.21 -74.74)" style="fill:#ffffff"/><path d="M329.39,121.65q6.92,1.88,10.38,5.11c2.31,2.17,3.46,5.22,3.46,9.18a27.77,27.77,0,0,1-.66,5.82A15.55,15.55,0,0,1,334.33,153q-6.7,3.57-19,3.57H304.89c-2,0-4,0-6.16-.05s-4.17-.09-6.15-.16l4.51-13.52c2,.07,3.82.13,5.54.17s3.41.05,5.06.05H318.4a26,26,0,0,0,4.62-.33,3.72,3.72,0,0,0,3.4-4,2.25,2.25,0,0,0-1.1-2.08,12.62,12.62,0,0,0-3.4-1.21l-10.33-2.75a19.54,19.54,0,0,1-8.68-4.83q-3.3-3.3-3.3-9.23a24.37,24.37,0,0,1,.55-4.73q1.54-7.9,7.8-11.59t18.13-3.68h4.67c1.5,0,3.1,0,4.78.06s3.59.09,5.72.16,4.61.15,7.47.22l-5,13.41c-2.85-.08-5.29-.13-7.3-.17l-5.22-.11c-1.47,0-2.77-.05-3.9-.05H324a36.5,36.5,0,0,0-4.33.21,4.4,4.4,0,0,0-2.59,1.1,2.86,2.86,0,0,0-.66,1.21,5.54,5.54,0,0,0-.22,1.43,2,2,0,0,0,1,1.87,14.55,14.55,0,0,0,2.86,1.1Z" transform="translate(-39.21 -74.74)" style="fill:#ffffff"/><path d="M441.35,118.47a79.42,79.42,0,0,1-5.44,18.95,37.8,37.8,0,0,1-8.51,12.31,29.37,29.37,0,0,1-11.76,6.65,54.33,54.33,0,0,1-15.27,2q-15.06,0-22.75-6.59t-7.69-21.43q0-3.18.33-6.81t1.1-7.58a79.42,79.42,0,0,1,5.44-19,38.12,38.12,0,0,1,8.46-12.31A28.88,28.88,0,0,1,397,78a54.33,54.33,0,0,1,15.27-2q15.06,0,22.8,6.59t7.75,21.53a62.33,62.33,0,0,1-.39,6.76Q442,114.51,441.35,118.47Zm-39.56,24.72a27.78,27.78,0,0,0,7.92-1,12.14,12.14,0,0,0,5.71-3.74,22.9,22.9,0,0,0,4.12-7.69,89.7,89.7,0,0,0,3.13-12.85c.51-2.78.9-5.31,1.15-7.58a54.55,54.55,0,0,0,.39-6.16,20.67,20.67,0,0,0-.83-6.42,8.45,8.45,0,0,0-6.59-6,26.59,26.59,0,0,0-5.77-.55,27.76,27.76,0,0,0-7.91,1,12.2,12.2,0,0,0-5.71,3.73,23.86,23.86,0,0,0-4.18,7.69A84.4,84.4,0,0,0,390,116.49c-.52,2.79-.9,5.31-1.16,7.58a56.11,56.11,0,0,0-.38,6.05,21.34,21.34,0,0,0,.82,6.48,9.06,9.06,0,0,0,2.48,4,8.83,8.83,0,0,0,4.17,2A27.4,27.4,0,0,0,401.79,143.19Z" transform="translate(-39.21 -74.74)" style="fill:#ffffff"/><path d="M501.34,92.76q-4,0-7.09-.06c-2.08,0-4,0-5.82,0H477.94q-5.28,0-8.13,1.48a6.53,6.53,0,0,0-3.52,4.78,10.41,10.41,0,0,0-.33,2.53,4.77,4.77,0,0,0,1.54,3.84,13.47,13.47,0,0,0,4.94,2.31l10.11,3.19q9.34,3,13,7.69a17.33,17.33,0,0,1,3.68,11,31.47,31.47,0,0,1-.66,6.15,28.9,28.9,0,0,1-3.79,10.16A19.36,19.36,0,0,1,488,152.2a30.47,30.47,0,0,1-10.11,3.41,83.39,83.39,0,0,1-13.68,1q-5.06,0-12-.11t-14.67-.1l5.61-14.73c2.12.08,4.35.13,6.7.17s4.61.05,6.81.05h10.11c4.39,0,7.71-.45,9.94-1.37s3.65-2.8,4.23-5.66a10.45,10.45,0,0,0,.17-1.1c0-.36.05-.73.05-1.1a5.16,5.16,0,0,0-1.7-4.12,14.67,14.67,0,0,0-5.11-2.58L465,123.08a43.28,43.28,0,0,1-8.13-3.4,20.25,20.25,0,0,1-5.27-4.12,14.07,14.07,0,0,1-2.86-5,18.69,18.69,0,0,1-.88-5.88,35.41,35.41,0,0,1,.66-6.48,23.64,23.64,0,0,1,4-9.83,21.64,21.64,0,0,1,7.19-6.27,31.63,31.63,0,0,1,10-3.29A76.3,76.3,0,0,1,482,77.92h10q2.64,0,6.1.06l8.95.16Z" transform="translate(-39.21 -74.74)" style="fill:#ffffff"/></svg>
