<svg xmlns="http://www.w3.org/2000/svg" viewBox="0 0 176.54 39.8"><title>Asset 2</title><g id="Layer_2" data-name="Layer 2"><g id="Layer_1-2" data-name="Layer 1"><path d="M36.54,16.56c0-3.5-2.16-5.88-5.56-5.88H22.25V29.09h4V22.34h2.87l3.22,6.75H36.8l-3.61-7.23a5.25,5.25,0,0,0,3.35-5.3m-4.14.58A1.71,1.71,0,0,1,30.48,19H26.26v-4.8h4.22A1.71,1.71,0,0,1,32.4,16Z" style="fill:#fff"/><polygon points="96.52 23.07 96.44 23.07 94.67 19.38 89.64 10.69 85.26 10.69 85.26 29.09 89.03 29.09 89.03 16.7 89.11 16.7 90.88 20.39 95.92 29.09 100.29 29.09 100.29 10.69 96.52 10.69 96.52 23.07" style="fill:#fff"/><polygon points="64.73 10.69 60.72 10.69 60.72 10.69 60.72 13.87 64.52 26.49 64.52 29.09 68.53 29.09 68.53 25.9 64.73 13.28 64.73 10.69" style="fill:#fff"/><polygon points="76.1 10.69 72.09 10.69 72.09 10.69 72.09 13.87 75.9 26.49 75.9 29.09 79.91 29.09 79.91 25.9 76.1 13.28 76.1 10.69" style="fill:#fff"/><polygon points="52.57 10.68 45.89 10.68 45.11 13.28 41.31 25.89 41.31 29.08 45.31 29.08 45.31 26.48 48.98 14.32 49.48 14.32 53.15 26.48 53.15 29.08 57.16 29.08 57.16 25.89 53.36 13.28 52.57 10.68" style="fill:#fff"/><path d="M118.14,19.78A7.65,7.65,0,0,0,114,18l-1.84-.29a3.79,3.79,0,0,1-1.66-.54,1.45,1.45,0,0,1-.48-1.25c0-1.11.88-1.69,2.64-1.69h5.64V10.68h-5.64a7.64,7.64,0,0,0-4.88,1.53,4.92,4.92,0,0,0-1.77,4,4.81,4.81,0,0,0,1.37,3.64,7.38,7.38,0,0,0,4.25,1.63l1.82.24a2.7,2.7,0,0,1,1.66.67,1.83,1.83,0,0,1,.47,1.31,2,2,0,0,1-.73,1.63,3.4,3.4,0,0,1-2.17.61A6,6,0,0,1,108,23.76l-2.61,2.66a8.86,8.86,0,0,0,6.93,3,9.18,9.18,0,0,0,3.87-.75,5.55,5.55,0,0,0,2.46-2.1,5.72,5.72,0,0,0,.84-3.11,4.82,4.82,0,0,0-1.37-3.66" style="fill:#fff"/><path d="M0,10.68v3.19H2.38V29.09h9.75a4.44,4.44,0,0,0,1.9-.41,4.61,4.61,0,0,0,1.5-1.12,5.07,5.07,0,0,0,1-1.67,5.86,5.86,0,0,0,.36-2.05,4.43,4.43,0,0,0-2.94-4.36v-.16c1.25-.46,2.23-1.75,2.23-3.91A4.66,4.66,0,0,0,14.89,12a4.82,4.82,0,0,0-3.57-1.29Zm6.39,3.38h4a1.69,1.69,0,0,1,1.24.45,1.71,1.71,0,0,1,.44,1.24v.79a1.71,1.71,0,0,1-.44,1.24,1.69,1.69,0,0,1-1.24.45h-4Zm6.32,10a1.6,1.6,0,0,1-.46,1.23,1.74,1.74,0,0,1-1.25.43H6.39V21.5H11a1.74,1.74,0,0,1,1.25.43,1.6,1.6,0,0,1,.46,1.23Z" style="fill:#fff"/><path d="M142.68,19.89a5.6,5.6,0,0,0-10.93-1.71l1.84,6.07a5.54,5.54,0,0,0,3.49,1.24,5.6,5.6,0,0,0,5.6-5.6" style="fill:#fff"/><path d="M168.31,5.62V0h-40V6.9l1.92,6.35a9.52,9.52,0,1,1,6.81,16.16,9.36,9.36,0,0,1-2-.22l1.5,5V39.8h40V32.9Zm-5.54,20.93a5.58,5.58,0,0,1-2.47,2.1,9.1,9.1,0,0,1-3.86.75,8.83,8.83,0,0,1-6.93-3l2.61-2.66a6,6,0,0,0,4.61,2.14,3.35,3.35,0,0,0,2.16-.61,2,2,0,0,0,.74-1.63,1.88,1.88,0,0,0-.47-1.31,2.7,2.7,0,0,0-1.66-.67l-1.82-.24a7.38,7.38,0,0,1-4.25-1.63,4.81,4.81,0,0,1-1.37-3.64,4.92,4.92,0,0,1,1.77-4,7.62,7.62,0,0,1,4.88-1.53h5.64v3.56h-5.64c-1.76,0-2.64.58-2.64,1.69a1.47,1.47,0,0,0,.47,1.25,3.84,3.84,0,0,0,1.66.54l1.85.29a7.65,7.65,0,0,1,4.19,1.77,4.82,4.82,0,0,1,1.37,3.66,5.72,5.72,0,0,1-.84,3.11" style="fill:#fff"/></g></g></svg>