<svg xmlns="http://www.w3.org/2000/svg" width="16px" height="16px" viewBox="0 0 16 16" version="1.1" fill="#ffffff">
    <path d="M 12.851562 4.648438 L 9.351562 1.148438 C 9.261719 1.050781 9.132812 0.996094 9 1 L 4 1 C 3.449219 1 3 1.449219 3 2 L 3 14 C 3 14.550781 3.449219 15 4 15 L 12 15 C 12.550781 15 13 14.550781 13 14 L 13 5 C 13.003906 4.867188 12.949219 4.738281 12.851562 4.648438 Z M 9 2.199219 L 11.800781 5 L 9 5 Z M 12 14 L 4 14 L 4 2 L 8 2 L 8 5 C 8 5.550781 8.449219 6 9 6 L 12 6 Z M 12 14 "/>
</svg>
