<svg xmlns="http://www.w3.org/2000/svg" width="16px" height="16px" viewBox="0 0 16 16" version="1.1" fill="#ffffff">
    <path d="M 14.625 3.378906 C 14.0625 2.816406 13.296875 2.496094 12.5 2.496094 C 11.703125 2.496094 10.9375 2.816406 10.375 3.378906 L 11.085938 4.089844 C 11.867188 3.308594 13.136719 3.308594 13.921875 4.089844 C 14.703125 4.871094 14.703125 6.140625 13.921875 6.925781 L 9.921875 10.925781 C 9.136719 11.707031 7.871094 11.707031 7.085938 10.925781 C 6.304688 10.144531 6.304688 8.878906 7.085938 8.09375 L 7.789062 7.386719 L 7.085938 6.675781 L 6.375 7.386719 C 5.808594 7.949219 5.492188 8.710938 5.492188 9.511719 C 5.492188 10.308594 5.808594 11.070312 6.375 11.636719 C 6.941406 12.195312 7.703125 12.503906 8.5 12.5 C 9.300781 12.503906 10.070312 12.1875 10.636719 11.621094 L 14.636719 7.621094 C 15.800781 6.445312 15.796875 4.546875 14.625 3.378906 Z M 14.625 3.378906 "/>
    <path d="M 2.09375 12.410156 C 1.71875 12.035156 1.507812 11.523438 1.507812 10.992188 C 1.507812 10.460938 1.71875 9.949219 2.09375 9.574219 L 6.09375 5.574219 C 6.46875 5.199219 6.980469 4.984375 7.511719 4.984375 C 8.042969 4.984375 8.554688 5.199219 8.929688 5.574219 C 9.304688 5.953125 9.511719 6.46875 9.5 7 C 9.503906 7.535156 9.292969 8.046875 8.914062 8.425781 L 7.855469 9.5 L 8.566406 10.210938 L 9.625 9.148438 C 10.800781 7.976562 10.800781 6.070312 9.625 4.894531 C 8.449219 3.71875 6.546875 3.71875 5.371094 4.894531 L 1.371094 8.894531 C 0.804688 9.457031 0.484375 10.222656 0.484375 11.023438 C 0.484375 11.820312 0.804688 12.585938 1.371094 13.148438 C 1.9375 13.703125 2.707031 14.011719 3.5 14 C 4.300781 14 5.070312 13.683594 5.640625 13.121094 L 4.929688 12.410156 C 4.554688 12.785156 4.042969 13 3.511719 13 C 2.980469 13 2.46875 12.785156 2.09375 12.410156 Z M 2.09375 12.410156 "/>
</svg>
